<svg xmlns="http://www.w3.org/2000/svg" xmlns:xlink="http://www.w3.org/1999/xlink" width="500" zoomAndPan="magnify" viewBox="0 0 375 374.999991" height="500" preserveAspectRatio="xMidYMid meet" version="1.0"><defs><g /></defs><g fill="#3b3937" fill-opacity="1"><g transform="translate(157.895912, 199.499987)"><g><path d="M 8.21875 0.3125 C 5.957031 0.3125 4.25 -0.117188 3.09375 -0.984375 C 1.945312 -1.859375 1.375 -2.90625 1.375 -4.125 C 1.375 -4.9375 1.617188 -5.546875 2.109375 -5.953125 C 2.597656 -6.359375 3.238281 -6.5625 4.03125 -6.5625 C 4.050781 -4.238281 4.445312 -2.5625 5.21875 -1.53125 C 5.988281 -0.507812 7.109375 0 8.578125 0 C 9.921875 0 11.015625 -0.378906 11.859375 -1.140625 C 12.703125 -1.910156 13.125 -3.046875 13.125 -4.546875 C 13.125 -5.523438 12.929688 -6.316406 12.546875 -6.921875 C 12.160156 -7.535156 11.570312 -8.082031 10.78125 -8.5625 C 9.988281 -9.039062 8.96875 -9.566406 7.71875 -10.140625 C 6.664062 -10.609375 5.691406 -11.132812 4.796875 -11.71875 C 3.898438 -12.3125 3.179688 -13.035156 2.640625 -13.890625 C 2.097656 -14.742188 1.828125 -15.820312 1.828125 -17.125 C 1.828125 -19.0625 2.460938 -20.550781 3.734375 -21.59375 C 5.015625 -22.644531 6.753906 -23.171875 8.953125 -23.171875 C 10.878906 -23.171875 12.410156 -22.804688 13.546875 -22.078125 C 14.691406 -21.347656 15.265625 -20.484375 15.265625 -19.484375 C 15.265625 -18.828125 15.003906 -18.300781 14.484375 -17.90625 C 13.960938 -17.507812 13.253906 -17.3125 12.359375 -17.3125 C 12.359375 -19.144531 12.070312 -20.519531 11.5 -21.4375 C 10.9375 -22.351562 9.992188 -22.8125 8.671875 -22.8125 C 7.535156 -22.8125 6.59375 -22.472656 5.84375 -21.796875 C 5.101562 -21.128906 4.734375 -20.070312 4.734375 -18.625 C 4.734375 -17.644531 4.921875 -16.832031 5.296875 -16.1875 C 5.671875 -15.550781 6.253906 -14.988281 7.046875 -14.5 C 7.847656 -14.007812 8.867188 -13.484375 10.109375 -12.921875 C 11.304688 -12.410156 12.359375 -11.875 13.265625 -11.3125 C 14.171875 -10.75 14.878906 -10.0625 15.390625 -9.25 C 15.898438 -8.4375 16.15625 -7.410156 16.15625 -6.171875 C 16.15625 -4.191406 15.46875 -2.613281 14.09375 -1.4375 C 12.71875 -0.269531 10.757812 0.3125 8.21875 0.3125 Z M 8.21875 0.3125 " /></g></g></g><g fill="#3b3937" fill-opacity="1"><g transform="translate(175.683543, 199.499987)"><g><path d="M 1.125 0 L 1.125 -0.3125 L 1.796875 -0.3125 C 2.535156 -0.3125 3.113281 -0.484375 3.53125 -0.828125 C 3.945312 -1.171875 4.15625 -1.75 4.15625 -2.5625 L 4.15625 -20.421875 C 4.15625 -21.160156 3.945312 -21.695312 3.53125 -22.03125 C 3.113281 -22.363281 2.535156 -22.53125 1.796875 -22.53125 L 1.125 -22.53125 L 1.125 -22.84375 L 10.34375 -22.84375 C 13.113281 -22.84375 15.160156 -22.242188 16.484375 -21.046875 C 17.804688 -19.859375 18.46875 -18.21875 18.46875 -16.125 C 18.46875 -14.84375 18.179688 -13.648438 17.609375 -12.546875 C 17.046875 -11.453125 16.113281 -10.5625 14.8125 -9.875 C 13.507812 -9.195312 11.78125 -8.859375 9.625 -8.859375 L 7.875 -8.859375 L 7.875 -2.53125 C 7.875 -1.738281 8.082031 -1.171875 8.5 -0.828125 C 8.914062 -0.484375 9.492188 -0.3125 10.234375 -0.3125 L 11.109375 -0.3125 L 11.109375 0 Z M 7.875 -9.1875 L 9.3125 -9.1875 C 11.164062 -9.1875 12.488281 -9.703125 13.28125 -10.734375 C 14.070312 -11.765625 14.46875 -13.507812 14.46875 -15.96875 C 14.46875 -18.3125 14.113281 -19.988281 13.40625 -21 C 12.707031 -22.019531 11.503906 -22.53125 9.796875 -22.53125 L 7.875 -22.53125 Z M 7.875 -9.1875 " /></g></g></g><g fill="#3b3937" fill-opacity="1"><g transform="translate(195.294721, 199.499987)"><g><path d="M 9.921875 0 L 2.59375 -20.859375 C 2.351562 -21.503906 2.0625 -21.941406 1.71875 -22.171875 C 1.382812 -22.410156 0.941406 -22.53125 0.390625 -22.53125 L 0 -22.53125 L 0 -22.84375 L 9.28125 -22.84375 L 9.28125 -22.53125 L 8.1875 -22.53125 C 7.613281 -22.53125 7.171875 -22.441406 6.859375 -22.265625 C 6.554688 -22.097656 6.40625 -21.789062 6.40625 -21.34375 C 6.40625 -20.957031 6.507812 -20.46875 6.71875 -19.875 L 10.625 -8.515625 C 11.375 -6.378906 11.960938 -4.46875 12.390625 -2.78125 C 12.617188 -3.570312 12.878906 -4.445312 13.171875 -5.40625 C 13.472656 -6.363281 13.765625 -7.269531 14.046875 -8.125 L 17.734375 -19.640625 C 17.960938 -20.304688 18.078125 -20.832031 18.078125 -21.21875 C 18.078125 -21.707031 17.910156 -22.046875 17.578125 -22.234375 C 17.253906 -22.429688 16.726562 -22.53125 16 -22.53125 L 14.046875 -22.53125 L 14.046875 -22.84375 L 21.796875 -22.84375 L 21.796875 -22.53125 L 20.703125 -22.53125 C 20.085938 -22.53125 19.597656 -22.351562 19.234375 -22 C 18.867188 -21.644531 18.546875 -21.007812 18.265625 -20.09375 L 11.78125 0 Z M 9.921875 0 " /></g></g></g></svg>